<?xml version="1.0" encoding="UTF-8"?>
<svg id="_レイヤー_1-2" data-name="レイヤー 1" xmlns="http://www.w3.org/2000/svg" version="1.1" viewBox="0 0 226.8 42.8">
  <defs>
    <style>
      .cls-1 {
        fill: #0a3282;
        stroke-width: 0px;
      }
    </style>
  </defs>
  <path class="cls-1" d="M37.31925,26.5117c.00449-.06255.05804-.10941.12841-.10941l13.13727-.01775c.07141,0,.12162.06013.1283.12715.02234.26788-.01117,2.02558-.10711,3.26433-.32697,4.16588-1.20524,6.25169-2.81668,8.18561-2.04113,2.45182-4.45495,3.74078-8.07307,4.17494-4.33218.51884-10.95886.67514-14.12046.67514-2.32571,0-10.24021-.27675-13.31808-.68306-3.92045-.5155-6.63106-2.01983-8.53606-4.1425-2.00543-2.23635-3.00866-4.91815-3.32905-8.22371-.19303-1.99186-.38939-5.80864-.38939-7.77941C.02332,19.83032.23085,15.24915.38703,13.22149c.27905-3.63702,1.31694-6.25388,3.28771-8.41342C6.18909,2.05394,8.86296,1.08526,12.30121.65453,14.58119.36536,20.25819-.01172,25.59361-.01172c5.33771,0,11.40651.37707,13.68639.66625,3.4395.43073,5.59223,1.45076,7.69913,3.68713,2.00543,2.12934,2.867,4.68932,3.22747,7.9056.14511,1.28784.1496,2.70729.09824,3.47961-.00449.06921-.0569.12619-.12726.12619l-13.20534-.06368c-.07026,0-.12736-.05688-.12736-.12724,0,0-.04343-1.26996-.20858-1.95072-.27007-1.107-.92953-2.14377-2.90051-2.36361-1.95626-.21871-6.32195-.33928-8.12422-.33928-1.97421,0-6.00292.08592-8.24146.25451-2.22413.16735-3.30222,1.09917-3.53659,2.47635-.27007,1.57908-.45203,4.75509-.45203,7.1902,0,2.51769.15075,5.19593.3326,7.30963.17183,1.98423,1.29231,3.11807,3.60016,3.27203,2.18843.14615,6.3041.27907,8.28948.27907,1.7911,0,5.89456-.05585,8.16671-.28907,1.62825-.1663,2.80332-.88057,3.33792-2.62585.18749-.61165.20534-2.27216.21088-2.36371Z"/>
  <path class="cls-1" d="M104.61725,41.88761L87.40994.85424c-.01002-.04136-.04792-.07255-.0926-.07255h-18.89131c-.04468,0-.08143.03119-.09364.07255l-17.30785,41.0267c-.00543.01117-.00658.02453-.00658.0379,0,.05251.04238.0949.09479.0949l13.71092.00668c.06921,0,.13509-.04792.15628-.11379l2.70404-7.23488c.03007-.07247.06138-.10379.13049-.10379l19.99383.0067c.06932,0,.10053.03007.12955.10377l2.65602,7.24157c.02787.06368.08028.10826.14281.10607l13.79245-.00564c.05241,0,.09479-.04355.09479-.09594,0-.01338-.00104-.02558-.00668-.03685ZM84.86896,25.93815h-14.02901c-.06932,0-.11713-.05483-.11713-.12507,0-.02224.01221-.06253.02787-.09594l6.05741-15.78328c.01796-.05688.06253-.09488.11494-.09488h1.95532c.05345,0,.09813.038.11379.09488l5.96722,15.78328c.01451.03341.02787.0737.02787.09594,0,.07024-.04917.12507-.11828.12507Z"/>
  <path class="cls-1" d="M170.10171,1.09414c0-.05345-.04124-.0949-.09479-.0949h-12.93203c-.05241,0-.09364.04144-.09364.0949v40.61486c0,.05251.04353.09604.09364.09604h12.93318c.05241,0,.09479-.04353.09479-.09604l-.00115-40.61486Z"/>
  <path class="cls-1" d="M118.06249,29.48466c-.06243,2.18279,1.03904,3.3279,2.91826,3.49744,1.24554.1117,5.16598.26558,7.7316.26558,2.75979,0,4.50297-.06911,6.70487-.1829,1.90938-.09604,3.40703-1.06128,3.37582-3.51425-.02244-1.81125-.92849-3.19835-3.20294-3.37812-2.84455-.22769-14.22653-.63378-20.32194-1.09134-6.01064-.45099-8.58523-4.49305-9.17214-6.05981-.52239-1.39388-.95657-2.89487-.95657-5.9883,0-2.57354.38396-4.72732,1.13947-6.34995.77346-1.66278,2.35139-3.65151,4.9003-4.87909,2.92828-1.40944,9.56174-1.60037,16.42049-1.60037,6.85656,0,13.29574.21213,16.233,1.60037,2.5321,1.19751,4.09677,3.22965,4.90145,4.87909.8124,1.66501,1.34805,4.30986,1.34805,6.62106,0,.05251-.04353.09604-.09594.09604l-12.80362-.0023c-.05241,0-.09594-.04124-.09594-.09375-.0023-.18854-.01013-.72429-.01232-.90062-.02119-1.36361-.83923-2.29439-2.13154-2.57334-.8337-.17862-4.78975-.32143-6.82973-.32143-1.95741,0-6.14469.1116-7.841.29345-1.83004.19522-2.72742,1.31579-2.72742,3.26871,0,1.75321.91627,2.9384,2.58242,3.03998,1.59589.09813,17.02765.81355,19.76625,1.00658,5.14792.36382,7.80509,1.48418,9.98684,4.7317,1.4608,2.17841,1.70299,4.61457,1.7364,7.6914.057,5.0642-1.31465,7.41455-2.715,8.95354-1.39733,1.53878-3.18843,2.9383-6.68472,3.46946-3.49869.53114-8.81073.67189-14.61717.67189-5.55653,0-11.28249-.32811-14.09708-.89289-4.78296-.9597-8.46351-4.80311-8.46351-12.25785,0-.05126.04238-.09375.0949-.09375h12.83484c.05126,0,.09364.04249.09364.09375Z"/>
  <path class="cls-1" d="M225.96992,10.36243c-.91962-4.39471-5.20054-8.60757-9.85081-9.36642-3.46842-.56467-8.95792-.88162-14.57458-.88162-5.61342,0-11.07735.31694-14.54681.88162-4.65142.75885-8.93015,4.97171-9.84977,9.36642-.58806,2.80655-.80676,8.79715-.80676,10.89184,0,3.42614.16964,8.06514.79131,11.11076.92285,4.5298,5.25065,8.81292,10.17204,9.48919,4.92034.67627,8.88986.83474,14.23999.83474,5.35223,0,9.34742-.15847,14.26766-.83474,4.9216-.67627,9.24929-4.95939,10.1711-9.48919.62167-3.04562.7934-7.68462.7934-11.11076,0-2.09468-.21975-8.08529-.80676-10.89184ZM213.11379,28.24474c-.17069,1.9854-1.40056,3.02998-3.27654,3.17728-2.18175.17403-6.49827.27894-8.4847.27894h.00773-.0167.00898c-1.98768,0-5.76406-.12715-7.9502-.27226-2.30796-.15398-3.41946-1.4775-3.58565-3.13594-.21547-2.10803-.39179-4.93475-.39179-7.45253,0-2.43491.22998-6.12892.56363-7.11984.4609-1.36935,1.55235-2.26882,3.41591-2.40609,2.23311-.16411,6.29971-.28124,8.28061-.28354-.00449,0,5.93256.05919,8.15899.28124,1.66614.16526,2.87806,1.22988,3.15816,2.40839.34252,1.44295.44744,5.07547.44744,7.51049,0,2.51653-.15388,4.9026-.33584,7.01386Z"/>
</svg>